<svg width="26" height="25" viewBox="0 0 26 25" fill="none" xmlns="http://www.w3.org/2000/svg">
<path fill-rule="evenodd" clip-rule="evenodd" d="M12.6682 0.420898C5.76517 0.420898 0.168213 5.93036 0.168213 12.7255C0.168213 18.1616 3.7491 22.7746 8.71681 24.4005C9.34192 24.5146 9.57167 24.1336 9.57167 23.8076C9.57167 23.5142 9.55925 22.5443 9.55511 21.5174C6.07772 22.2611 5.34498 20.0667 5.34498 20.0667C4.77576 18.6445 3.95816 18.2655 3.95816 18.2655C2.82387 17.5015 4.04303 17.5178 4.04303 17.5178C5.29737 17.6054 5.95973 18.7851 5.95973 18.7851C7.0754 20.6657 8.88447 20.1217 9.59651 19.8079C9.70829 19.0133 10.0333 18.4693 10.3893 18.1616C7.61357 17.8499 4.69504 16.7944 4.69504 12.0817C4.69504 10.7389 5.18353 9.6407 5.9825 8.77882C5.8521 8.46912 5.42571 7.21808 6.10256 5.52286C6.10256 5.52286 7.15198 5.19278 9.54062 6.78409C10.5383 6.51106 11.6064 6.37454 12.6703 6.37047C13.7321 6.37454 14.8023 6.51106 15.802 6.78409C18.1886 5.19278 19.2359 5.52286 19.2359 5.52286C19.9169 7.21808 19.4885 8.46912 19.3581 8.77882C20.1591 9.6407 20.6435 10.7389 20.6435 12.0817C20.6435 16.8067 17.7187 17.8478 14.9368 18.1535C15.386 18.5345 15.7854 19.2843 15.7854 20.4314C15.7854 22.0777 15.771 23.4021 15.771 23.8076C15.771 24.1356 15.9966 24.5187 16.63 24.3985C21.5935 22.7705 25.1703 18.1596 25.1703 12.7255C25.1682 5.93036 19.5713 0.420898 12.6682 0.420898Z" fill="white"/>
<path d="M4.90195 18.0862C4.87504 18.1474 4.77569 18.1657 4.68668 18.1229C4.59561 18.0822 4.54593 17.9986 4.57491 17.9375C4.60182 17.8743 4.6991 17.858 4.79017 17.8988C4.88125 17.9395 4.933 18.0231 4.90195 18.0842V18.0862Z" fill="white"/>
<path d="M5.4091 18.6425C5.34908 18.6975 5.23316 18.671 5.15451 18.5855C5.07171 18.4999 5.05722 18.3858 5.11725 18.3308C5.17935 18.2758 5.29112 18.3023 5.37391 18.3878C5.45671 18.4754 5.4712 18.5875 5.4091 18.6425Z" fill="white"/>
<path d="M5.90181 19.3516C5.82523 19.4046 5.69897 19.3557 5.62238 19.2456C5.5458 19.1356 5.5458 19.0052 5.62238 18.9522C5.69897 18.8993 5.82316 18.9461 5.90181 19.0562C5.9784 19.1682 5.9784 19.2986 5.90181 19.3516Z" fill="white"/>
<path d="M6.57661 20.0361C6.5083 20.1115 6.36134 20.0911 6.25578 19.9892C6.14607 19.8894 6.1171 19.7488 6.1854 19.6754C6.25578 19.6001 6.40067 19.6225 6.5083 19.7223C6.61594 19.8221 6.64905 19.9627 6.57661 20.0361Z" fill="white"/>
<path d="M7.50811 20.4334C7.47706 20.5292 7.33631 20.574 7.19556 20.5333C7.05481 20.4905 6.96166 20.3784 6.99064 20.2806C7.01962 20.1828 7.16037 20.138 7.30319 20.1808C7.44394 20.2236 7.53709 20.3356 7.50811 20.4334Z" fill="white"/>
<path d="M8.53048 20.5067C8.53462 20.6086 8.41457 20.6921 8.26554 20.6942C8.11651 20.6983 7.99438 20.6147 7.99438 20.5149C7.99438 20.413 8.11237 20.3295 8.2614 20.3274C8.41043 20.3254 8.53255 20.4069 8.53255 20.5067H8.53048Z" fill="white"/>
<path d="M9.48258 20.348C9.50121 20.4478 9.39771 20.5477 9.24868 20.5762C9.10379 20.6027 8.96925 20.5416 8.95062 20.4438C8.93199 20.3419 9.03755 20.24 9.18245 20.2135C9.32941 20.1891 9.46188 20.2482 9.48051 20.348H9.48258Z" fill="white"/>
</svg>
